<?xml version="1.0" encoding="UTF-8" standalone="no"?>
<!-- Generator: Adobe Illustrator 23.0.2, SVG Export Plug-In . SVG Version: 6.00 Build 0)  -->

<svg
   xmlns:dc="http://purl.org/dc/elements/1.1/"
   xmlns:cc="http://creativecommons.org/ns#"
   xmlns:rdf="http://www.w3.org/1999/02/22-rdf-syntax-ns#"
   xmlns:svg="http://www.w3.org/2000/svg"
   xmlns="http://www.w3.org/2000/svg"
   xmlns:sodipodi="http://sodipodi.sourceforge.net/DTD/sodipodi-0.dtd"
   xmlns:inkscape="http://www.inkscape.org/namespaces/inkscape"
   version="1.1"
   id="Layer_1"
   x="0px"
   y="0px"
   viewBox="0 0 1045.21 277.24"
   style="enable-background:new 0 0 1045.21 277.24;"
   xml:space="preserve"
   sodipodi:docname="ASSET_BANNER_VECTOR.svg"
   inkscape:version="0.92.4 (f8dce91, 2019-08-02)"><metadata
   id="metadata115"><rdf:RDF><cc:Work
       rdf:about=""><dc:format>image/svg+xml</dc:format><dc:type
         rdf:resource="http://purl.org/dc/dcmitype/StillImage" /></cc:Work></rdf:RDF></metadata><defs
   id="defs113" /><sodipodi:namedview
   pagecolor="#ffffff"
   bordercolor="#666666"
   borderopacity="1"
   objecttolerance="10"
   gridtolerance="10"
   guidetolerance="10"
   inkscape:pageopacity="0"
   inkscape:pageshadow="2"
   inkscape:window-width="3840"
   inkscape:window-height="2123"
   id="namedview111"
   showgrid="false"
   inkscape:zoom="2.3040748"
   inkscape:cx="504.47938"
   inkscape:cy="169.75931"
   inkscape:window-x="0"
   inkscape:window-y="0"
   inkscape:window-maximized="1"
   inkscape:current-layer="Layer_1"
   showguides="true"
   inkscape:guide-bbox="true"><sodipodi:guide
     position="267.78646,167.52929"
     orientation="1,0"
     id="guide47"
     inkscape:locked="false" /></sodipodi:namedview>
<style
   type="text/css"
   id="style2">
	.st0{fill:none;stroke:#FFFFFF;stroke-width:2.8572;stroke-miterlimit:10;}
	.st1{fill:#FFFFFF;stroke:#FFFFFF;stroke-width:0.2292;stroke-miterlimit:10;}
	.st2{fill:#FFFFFF;stroke:#FFFFFF;stroke-width:1.4286;stroke-miterlimit:10;}
	.st3{fill:#FFFFFF;stroke:#FFFFFF;stroke-width:0.6363;stroke-miterlimit:10;}
	.st4{fill:#FFFFFF;stroke:#FFFFFF;stroke-width:3.3742;stroke-linecap:round;stroke-linejoin:bevel;stroke-miterlimit:10;}
	.st5{fill:#FFFFFF;stroke:#FFFFFF;stroke-width:1.9892;stroke-linejoin:bevel;stroke-miterlimit:10;}
	.st6{fill:#FFFFFF;stroke:#FFFFFF;stroke-width:0.9329;stroke-linejoin:bevel;stroke-miterlimit:10;}
	.st7{fill:#FFFFFF;stroke:#FFFFFF;stroke-width:2.815;stroke-linejoin:bevel;stroke-miterlimit:10;}
	.st8{fill:none;}
	.st9{fill:#1E3160;}
	.st10{font-family:'RobotoSlab-Regular';}
	.st11{font-size:54.1425px;}
	.st12{font-size:52.6792px;}
	.st13{font-size:51.2159px;}
	.st14{fill:#DDB431;stroke:#DDB431;stroke-width:6.4348;stroke-linejoin:bevel;stroke-miterlimit:10;}
	.st15{fill:none;stroke:#FFFFFF;stroke-width:4.3881;stroke-miterlimit:10;}
	.st16{fill:#FFFFFF;stroke:#FFFFFF;stroke-width:0.352;stroke-miterlimit:10;}
	.st17{fill:#FFFFFF;stroke:#FFFFFF;stroke-width:2.194;stroke-miterlimit:10;}
	.st18{fill:#FFFFFF;stroke:#FFFFFF;stroke-width:0.9773;stroke-miterlimit:10;}
	.st19{fill:#FFFFFF;stroke:#FFFFFF;stroke-width:5.1822;stroke-linecap:round;stroke-linejoin:bevel;stroke-miterlimit:10;}
	.st20{fill:#FFFFFF;stroke:#FFFFFF;stroke-width:3.055;stroke-linejoin:bevel;stroke-miterlimit:10;}
	.st21{fill:#FFFFFF;stroke:#FFFFFF;stroke-width:1.4327;stroke-linejoin:bevel;stroke-miterlimit:10;}
	.st22{fill:#FFFFFF;stroke:#FFFFFF;stroke-width:4.3234;stroke-linejoin:bevel;stroke-miterlimit:10;}
	.st23{font-family:'RobotoSlab-Bold';}
	.st24{font-size:43.952px;}
	.st25{fill:#BA2C2A;}
	.st26{font-size:17px;}
	.st27{fill:#DB2527;}
	.st28{fill:none;stroke:#1E3160;stroke-width:0.5207;stroke-linecap:round;stroke-miterlimit:10;}
	.st29{fill:#1E3160;stroke:#1E3160;stroke-width:0.1302;stroke-linecap:round;stroke-miterlimit:10;}
</style>






<rect
   x="264.76"
   y="42.37"
   class="st8"
   width="673.98"
   height="141.31"
   id="rect30" />
<text
   transform="matrix(1 0 0 1 264.7643 83.6115)"
   id="text38"><tspan
     x="0"
     y="0"
     class="st9 st10 st11"
     id="tspan32">Accessible Security and</tspan><tspan
     x="632.77"
     y="0"
     class="st9 st10 st12"
     id="tspan34"> </tspan><tspan
     x="0"
     y="61.46"
     class="st9 st10 st13"
     id="tspan36">Safety Technologies Group</tspan></text>


<path
   class="st14"
   d="M167.61,42.31c2.72-1.36,8.37-1.62,18.18-2.06c0.57-0.03,3.34-0.21,7.08-0.15c5.14,0.08,8.44,0.61,15.76,0.67  c22.07,0.17,28.35-4.25,33.09,1.03c2.13,2.38,2.81,5.44,2.8,18.55c-0.01,8.26-0.08,14.24-0.41,20.48c-0.12,2.29-0.26,4.37-0.41,6.24  c-0.45,5.83-0.95,10.04-1.04,10.89c-1.38,12.18-0.44,46.34-0.44,79.32c0,5.27-0.02,2.7-0.02,5.68c0.02,27.7,1.93,39.62-4.66,44.82  c-1.15,0.91-1.89,2.36-18.18,1.55c-2.43-0.12-12.34,0.35-32.16,1.03c-14.99,0.52-17.94,2.43-20.24,1.69c0,0-0.62-0.26-1.21-0.65  c-8.52-5.71-3.73-63.88-3.73-63.88c0.97-11.77,2.85-34.62,2.33-59.76C163.68,75.71,159.44,46.4,167.61,42.31z"
   id="path40" />
<g
   id="g68">
	<path
   class="st15"
   d="M207.76,72.48c-0.74-1.17,1.12-2.23,1.7-4.8c0.5-2.23-0.08-5.15-2.32-7.18c-2.21-2-5.1-2.27-6.03-2.34   c-0.72-0.06-4.46-0.36-7.42,1.93c-2.82,2.18-3.02,5.23-3.04,5.7c-0.16,3.52,2.54,5.43,1.44,6.62c-0.81,0.87-2.31-0.07-5.15,0.75   c-2.61,0.76-4.16,2.37-4.71,2.97c-0.75,0.8-2.6,2.78-2.45,5.66c0.02,0.45,0.25,3.7,3.5,5.77c2.69,1.72,5.63,1.48,6.42,1.4   c2.9-0.28,4.87-1.69,5.38-2.07c2.28-1.68,2.46-3.33,3.74-3.34c0.97,0,1.71,0.95,2.99,2.59c1.54,1.98,1.27,2.5,2.44,3.56   c1.73,1.56,3.94,1.89,4.33,1.95c2.36,0.33,4.19-0.42,5.26-0.86c0.55-0.22,2.97-1.27,4.77-3.68c0.7-0.95,3.05-4.1,1.71-7.24   c-0.88-2.09-3.01-3.29-4.41-4.08c-1.53-0.87-3.36-1.51-4.08-1.76C209.03,73.06,208.2,73.18,207.76,72.48z"
   id="path42" />
	<path
   class="st16"
   d="M204.79,83.02c-0.3-0.72,1.67-1.71,1.84-3.63c0.21-2.42-2.59-4.39-2.76-4.5c-1.5-1.03-2.98-1.01-3.65-0.99   c-0.71,0.02-2.29,0.08-3.81,1.3c-0.45,0.36-2.42,1.94-2.32,3.9c0.11,2.02,2.36,3.21,2.06,3.82c-0.24,0.48-1.55-0.45-2.37,0.24   c-0.94,0.79-0.65,3.24-0.34,5.95c0.21,1.84,0.45,2.5,0.06,3.39c-0.55,1.24-1.58,1.24-1.69,2.14c-0.18,1.39,2.1,2.54,1.84,3.27   c-0.19,0.53-1.38-0.08-2.5,0.78c-1.07,0.83-1.22,2.35-1.23,2.42c-0.01,0.07-0.1,1.46,0.67,2.45c1.07,1.38,3.13,1.1,4.01,1   c2.78-0.32,6.71-0.4,12.55-0.11c1.32,0.71,2.91,0.27,3.81-1.03c1.04-1.52,0.77-3.84-0.16-4.6c-0.35-0.29-0.9-0.34-2-0.43   c-1.12-0.09-1.69,0.19-1.77-0.02c-0.18-0.45,2.39-1.61,2.3-2.95c-0.07-0.94-1.4-1.04-1.85-2.46c-0.25-0.8-0.05-1.46,0.16-2.43   c0.62-2.79,1.29-5.82,0.36-6.9C207.09,82.58,205.1,83.76,204.79,83.02z"
   id="path44" />
	<path
   class="st17"
   d="M198.96,97.65c0.88-2.07,2.02-1.55,2.87-0.75c0.42-0.45,1.4-1.31,1.8,0.29c0.31,1.24,0.14,3.39,0.08,4.19   c-0.52,6.75-0.21,13.81-0.51,20.67c-0.11,2.51-0.24,8.3-0.5,19.89c-0.25,11.19-0.29,17.67-0.43,28.53   c-0.11,8.89-0.29,21.73-0.59,37.68c-1.08-0.12-2.21-0.14-3.38-0.04c-0.61,0.05-1.22,0.13-1.81,0.24   c0.13-5.48,0.31-14.27,0.37-25.12c0.08-14.15-0.12-17.61,0.02-30.89c0.15-14.37,0.38-10.86,0.64-27.74   C197.76,108.06,197.59,100.85,198.96,97.65z"
   id="path46" />
	<path
   class="st18"
   d="M200.55,208.64c1.98,0.38,3.27,1.29,3.52,1.47c0.74,0.53,1.74,1.25,2.09,2.46c0.53,1.86-0.91,3.47-1.25,3.84   c-1.57,1.75-3.88,2.08-4.53,2.17c-0.53,0.08-3.56,0.46-6.13-1.3c-1.93-1.32-3.74-3.94-2.73-6.12   C192.81,208.36,197.87,208.12,200.55,208.64z"
   id="path48" />
	<g
   id="g64">
		<path
   class="st19"
   d="M211.25,178.68c-0.06,3.16-0.11,6.31-0.17,9.47c-0.05,2.56-0.09,5.13-0.14,7.69    c-0.07,4.14-0.15,8.28-0.22,12.43"
   id="path50" />
		<path
   class="st20"
   d="M215.25,182.43c-0.04,2.51-0.09,5.01-0.13,7.52c-0.04,2.04-0.07,4.07-0.11,6.11    c-0.06,3.29-0.12,6.58-0.17,9.87"
   id="path52" />
		<path
   class="st21"
   d="M219.62,207.35c-1.02-0.56-2.03-1.12-3.05-1.68c0.1-0.58,0.17-1.2,0.18-1.87c0.01-0.64-0.04-1.24-0.12-1.8    c4.06,0.05,8.11,0.11,12.17,0.16c-0.08,0.55-0.14,1.12-0.18,1.72c-0.04,0.57-0.02,0.91-0.03,1.87c0,0.43-0.01,1.04-0.03,1.8    C225.58,207.48,222.6,207.42,219.62,207.35z"
   id="path54" />
		<path
   class="st21"
   d="M220.08,180.88c-1.04,0.53-2.07,1.07-3.11,1.6c0.08,0.58,0.13,1.21,0.11,1.88    c-0.01,0.64-0.08,1.24-0.18,1.79c4.06,0.05,8.11,0.11,12.17,0.16c-0.06-0.55-0.1-1.13-0.12-1.72c-0.02-0.57,0.01-0.91,0.03-1.87    c0.01-0.43,0.02-1.04,0.03-1.8C226.04,180.9,223.06,180.89,220.08,180.88z"
   id="path56" />
		<g
   id="g62">
			<path
   class="st21"
   d="M219.8,196.86c-1.02-0.56-2.03-1.12-3.05-1.68c0.1-0.58,0.17-1.2,0.18-1.87c0.01-0.64-0.04-1.24-0.12-1.8     c4.06,0.05,8.11,0.11,12.17,0.16c-0.08,0.55-0.14,1.12-0.18,1.72c-0.04,0.57-0.02,0.91-0.03,1.87c0,0.43-0.01,1.04-0.03,1.8     C225.76,196.99,222.78,196.92,219.8,196.86z"
   id="path58" />
			<path
   class="st21"
   d="M219.89,191.63c-1.04,0.53-2.07,1.07-3.11,1.6c0.08,0.58,0.13,1.21,0.11,1.88     c-0.01,0.64-0.08,1.24-0.18,1.79c4.06,0.05,8.11,0.11,12.17,0.16c-0.06-0.55-0.1-1.13-0.12-1.72c-0.02-0.57,0.01-0.91,0.03-1.87     c0.01-0.43,0.02-1.04,0.03-1.8C225.86,191.65,222.87,191.64,219.89,191.63z"
   id="path60" />
		</g>
	</g>
	<path
   class="st22"
   d="M210.06,194.4c-2.83-0.04-5.66-0.07-8.49-0.11"
   id="path66" />
</g>
<rect
   x="262.1"
   y="161.77"
   class="st8"
   width="279.55"
   height="77.24"
   id="rect70" />
<text
   transform="matrix(1 0 0 1 265.9861 195.2513)"
   class="st9 st23 st24"
   id="text72">A   S   S   E   T </text>


<rect
   x="222.99"
   y="208.44"
   class="st8"
   width="323.32"
   height="27.09"
   id="rect74" />
<text
   id="text80"
   x="259.67929"
   y="221.38499"><tspan
     x="259.67929"
     y="221.38499"
     class="st25 st10 st26"
     id="tspan76"
     style="font-size:17px;font-family:RobotoSlab-Regular;fill:#ba2c2a"> </tspan><tspan
     x="263.89929"
     y="221.38499"
     class="st9 st10 st26"
     id="tspan78"
     style="font-size:17px;font-family:RobotoSlab-Regular;fill:#1e3160">The University of Rhode Island</tspan></text>


<path
   class="st27"
   d="M313.33,178.08c-1.86-0.03-3.01,1.32-3.15,1.49c-0.15,0.18-1.32,1.66-0.83,3.49c0.61,2.26,3.17,2.79,3.32,2.82  c1.51,0.29,3.62-0.16,4.48-1.83c0.88-1.69-0.14-3.49-0.33-3.82C316.67,179.99,315.51,178.11,313.33,178.08z"
   id="path82" />
<path
   class="st27"
   d="m 385.59,178.08 c -1.86,-0.03 -3.01,1.32 -3.15,1.49 -0.15,0.18 -1.32,1.66 -0.83,3.49 0.61,2.26 3.17,2.79 3.32,2.82 1.51,0.29 3.62,-0.16 4.48,-1.83 0.88,-1.69 -0.14,-3.49 -0.33,-3.82 -0.15,-0.24 -1.31,-2.12 -3.49,-2.15 z"
   id="path84"
   inkscape:connector-curvature="0"
   style="fill:#db2527" />
<path
   class="st27"
   d="m 456.61,178.08 c -1.86,-0.03 -3.01,1.32 -3.15,1.49 -0.15,0.18 -1.32,1.66 -0.83,3.49 0.61,2.26 3.17,2.79 3.32,2.82 1.51,0.29 3.62,-0.16 4.48,-1.83 0.88,-1.69 -0.14,-3.49 -0.33,-3.82 -0.15,-0.24 -1.31,-2.12 -3.49,-2.15 z"
   id="path86"
   inkscape:connector-curvature="0"
   style="fill:#db2527" />
<path
   class="st27"
   d="m 527.08,178.08 c -1.86,-0.03 -3.01,1.32 -3.15,1.49 -0.15,0.18 -1.32,1.66 -0.83,3.49 0.61,2.26 3.17,2.79 3.32,2.82 1.51,0.29 3.62,-0.16 4.48,-1.83 0.88,-1.69 -0.14,-3.49 -0.33,-3.82 -0.15,-0.24 -1.32,-2.12 -3.49,-2.15 z"
   id="path88"
   inkscape:connector-curvature="0"
   style="fill:#db2527" />
<g
   id="g108"
   transform="translate(12)">
	<path
   class="st28"
   d="m 526.74,205.98 c -0.48,0 -0.85,0.31 -0.91,0.36 -0.06,0.05 -0.35,0.3 -0.48,0.74 -0.2,0.64 0.07,1.18 0.15,1.33 0.08,0.15 0.31,0.57 0.81,0.76 0.68,0.27 1.29,-0.09 1.33,-0.12 0.49,-0.3 0.7,-0.81 0.73,-1.24 0.06,-0.92 -0.79,-1.84 -1.63,-1.83 z"
   id="path90"
   inkscape:connector-curvature="0"
   style="fill:none;stroke:#1e3160;stroke-width:0.52069998;stroke-linecap:round;stroke-miterlimit:10" />
	<path
   class="st29"
   d="m 525.55,209.43 c 0.01,-0.07 -0.19,-0.08 -0.41,-0.34 -0.12,-0.14 -0.19,-0.28 -0.26,-0.44 -0.09,-0.19 -0.14,-0.35 -0.17,-0.47 -0.35,-0.02 -0.71,-0.03 -1.08,-0.04 -0.61,-0.01 -1.2,-0.02 -1.78,-0.01 -0.01,0.27 -0.01,0.53 -0.02,0.8 0.23,0.1 0.54,0.23 0.92,0.34 0.42,0.13 0.75,0.19 0.84,0.2 0.95,0.18 1.94,0.11 1.96,-0.04 z"
   id="path92"
   inkscape:connector-curvature="0"
   style="fill:#1e3160;stroke:#1e3160;stroke-width:0.1302;stroke-linecap:round;stroke-miterlimit:10" />
	<path
   class="st29"
   d="m 520.89,207.73 c -0.05,0.06 -0.02,0.13 0,0.4 0.01,0.16 0.03,0.4 0.01,0.68 -0.02,0.15 -0.04,0.21 -0.04,0.4 -0.01,0.13 0,0.23 0,0.3 0.22,0 0.44,0 0.66,-0.01 -0.05,-0.23 -0.09,-0.49 -0.1,-0.79 -0.02,-0.45 0,-0.68 0.02,-0.77 0.01,-0.1 0.03,-0.18 0.04,-0.23 -0.24,-0.07 -0.5,-0.1 -0.59,0.02 z"
   id="path94"
   inkscape:connector-curvature="0"
   style="fill:#1e3160;stroke:#1e3160;stroke-width:0.1302;stroke-linecap:round;stroke-miterlimit:10" />
	<path
   class="st29"
   d="m 519.84,208.09 c -0.23,0.08 -0.32,0.3 -0.35,0.35 -0.03,0.07 -0.11,0.26 -0.02,0.44 0.06,0.13 0.18,0.19 0.26,0.23 0.08,0.04 0.33,0.17 0.56,0.04 0.2,-0.11 0.24,-0.33 0.25,-0.38 0.05,-0.24 -0.04,-0.55 -0.29,-0.68 -0.19,-0.08 -0.38,-0.01 -0.41,0 z"
   id="path96"
   inkscape:connector-curvature="0"
   style="fill:#1e3160;stroke:#1e3160;stroke-width:0.1302;stroke-linecap:round;stroke-miterlimit:10" />
	<path
   class="st29"
   d="m 528.14,209.4 c -0.01,-0.07 0.19,-0.08 0.41,-0.34 0.12,-0.14 0.18,-0.28 0.25,-0.45 0.08,-0.19 0.13,-0.35 0.16,-0.47 0.35,-0.02 0.71,-0.04 1.08,-0.06 0.61,-0.03 1.2,-0.04 1.78,-0.04 0.01,0.27 0.02,0.53 0.03,0.8 -0.23,0.11 -0.54,0.24 -0.91,0.36 -0.42,0.14 -0.75,0.2 -0.84,0.22 -0.95,0.18 -1.94,0.13 -1.96,-0.02 z"
   id="path98"
   inkscape:connector-curvature="0"
   style="fill:#1e3160;stroke:#1e3160;stroke-width:0.1302;stroke-linecap:round;stroke-miterlimit:10" />
	<path
   class="st29"
   d="m 532.77,207.62 c 0.05,0.06 0.02,0.13 0,0.4 -0.01,0.16 -0.03,0.4 0.01,0.68 0.02,0.15 0.04,0.21 0.05,0.4 0.01,0.13 0.01,0.23 0,0.3 -0.22,0 -0.44,0 -0.66,0.01 0.04,-0.23 0.08,-0.5 0.09,-0.8 0.01,-0.45 -0.02,-0.68 -0.03,-0.77 -0.02,-0.1 -0.04,-0.18 -0.05,-0.23 0.23,-0.08 0.49,-0.12 0.59,0.01 z"
   id="path100"
   inkscape:connector-curvature="0"
   style="fill:#1e3160;stroke:#1e3160;stroke-width:0.1302;stroke-linecap:round;stroke-miterlimit:10" />
	<path
   class="st29"
   d="m 533.83,207.96 c 0.24,0.08 0.33,0.29 0.35,0.35 0.03,0.07 0.11,0.26 0.03,0.44 -0.06,0.13 -0.18,0.2 -0.26,0.24 -0.08,0.04 -0.33,0.17 -0.56,0.05 -0.2,-0.1 -0.25,-0.33 -0.26,-0.37 -0.05,-0.24 0.03,-0.55 0.27,-0.68 0.2,-0.11 0.39,-0.04 0.43,-0.03 z"
   id="path102"
   inkscape:connector-curvature="0"
   style="fill:#1e3160;stroke:#1e3160;stroke-width:0.1302;stroke-linecap:round;stroke-miterlimit:10" />
	<path
   class="st29"
   d="m 527.46,209.87 c -0.42,0 -0.84,0.01 -1.26,0.01 0.04,0.43 0.06,0.9 0.06,1.4 0,0.57 -0.04,0.77 -0.08,1.62 -0.02,0.38 -0.01,0.38 -0.03,1.45 -0.02,1.07 -0.03,1.61 -0.05,1.99 -0.08,1.86 -0.18,1.46 -0.14,2.06 0.02,0.36 0.07,0.71 -0.13,1.08 -0.04,0.08 -0.24,0.45 -0.63,0.59 -0.31,0.11 -0.52,-0.01 -1.74,-0.59 -0.88,-0.43 -1.31,-0.63 -1.6,-1.11 -0.07,-0.12 -0.21,-0.35 -0.12,-0.49 0.09,-0.15 0.42,-0.16 0.82,-0.03 -0.19,-0.32 -0.48,-0.75 -0.95,-1.16 -0.76,-0.67 -1.56,-0.93 -2,-1.03 -0.14,0.27 -0.28,0.63 -0.32,1.08 -0.13,1.38 0.79,2.38 0.98,2.59 0.02,-0.14 0.08,-0.45 0.34,-0.68 0.09,-0.08 0.18,-0.15 0.28,-0.14 0.23,0.02 0.32,0.42 0.5,0.77 0.17,0.34 0.42,0.57 0.92,1.02 0.75,0.68 1.43,0.84 2.47,1.36 0.54,0.27 1.29,0.68 2.14,1.31 0.21,-0.14 0.48,-0.32 0.81,-0.52 0.69,-0.43 1.25,-0.73 1.49,-0.86 1.3,-0.69 1.28,-0.53 1.79,-0.91 0.62,-0.45 1.06,-0.97 1.23,-1.18 0.3,-0.37 0.74,-1.01 0.74,-1.01 0,0 0.22,0.05 0.28,0.07 0.12,0.04 0.26,0.19 0.33,0.7 0.13,-0.11 0.3,-0.28 0.46,-0.52 0.44,-0.63 0.48,-1.28 0.5,-1.57 0.04,-0.7 -0.14,-1.26 -0.27,-1.57 -0.28,0.05 -0.61,0.13 -0.96,0.29 -1.08,0.49 -1.65,1.36 -1.88,1.77 0.37,-0.07 0.67,-0.01 0.75,0.16 0.03,0.05 0.03,0.12 0,0.23 -0.1,0.37 -0.46,0.59 -0.6,0.68 -1.13,0.71 -1.09,0.92 -1.86,1.21 -0.59,0.22 -0.81,0.17 -0.89,0.15 -0.49,-0.14 -0.71,-0.66 -0.78,-0.81 -0.25,-0.57 -0.1,-0.98 -0.06,-1.85 0.01,-0.15 -0.02,-0.68 -0.09,-1.75 -0.07,-1.15 -0.14,-1.99 -0.27,-3.48 -0.02,-0.59 -0.09,-1.38 -0.18,-2.33 z"
   id="path104"
   inkscape:connector-curvature="0"
   style="fill:#1e3160;stroke:#1e3160;stroke-width:0.1302;stroke-linecap:round;stroke-miterlimit:10" />
	<path
   class="st29"
   d="m 526.36,205.43 c 0.29,-0.02 0.58,-0.04 0.87,-0.05 0,0.5 0.01,1 0.01,1.5 -0.27,0.01 -0.53,0.02 -0.8,0.03 -0.02,-0.5 -0.05,-0.99 -0.08,-1.48 z"
   id="path106"
   inkscape:connector-curvature="0"
   style="fill:#1e3160;stroke:#1e3160;stroke-width:0.1302;stroke-linecap:round;stroke-miterlimit:10" />
</g>
</svg>